<svg width="122.88" height="88.9" xmlns="http://www.w3.org/2000/svg">
 <style type="text/css">.st0{fill-rule:evenodd;clip-rule:evenodd;}</style>

 <g>
  <title>background</title>
  <rect fill="none" id="canvas_background" height="514" width="514" y="-1" x="-1"/>
 </g>
 <g>
  <title>Layer 1</title>
  <g id="svg_1">
   <path fill="#006d77" id="svg_2" d="m102.87,89.9l0,-1.98l-56.5,0c-6.11,0 -6.4,-12.25 0,-12.25l4.46,0l65.92,0c0.41,0 0.75,0.35 0.75,0.75l0,10.75c0,0.4 -0.34,0.75 -0.75,0.75l-3.38,0l0,1.98l-10.5,0l0,0zm-102.87,0l0,-38.61c0,-4.29 2.12,-8.1 5.36,-10.45c4.46,-3.23 16.9,-3.52 21.63,-0.79c5.03,2.9 5.01,9 9.35,13.24c5.81,5.68 4.35,6.33 12.27,6.33l15.87,0c14.15,0 6.54,13.76 -1.83,13.33l-14.44,0c-6.99,0 -7.58,1.12 -13.35,-2.72l-0.31,19.67l-34.55,0l0,0zm78.15,-16.87c-2.04,0 -3.7,-1.66 -3.7,-3.7c0,-2.04 1.66,-3.7 3.7,-3.7l25.01,0l12.73,-25.91c0.89,-1.83 3.1,-2.58 4.92,-1.69c1.83,0.89 2.58,3.1 1.69,4.92l-13.6,27.68c-0.53,1.39 -1.88,2.38 -3.46,2.38l-27.29,0l0,0.02zm-52.48,-72.03c9.75,0 17.65,7.9 17.65,17.65c0,9.75 -7.9,17.65 -17.65,17.65c-9.75,0 -17.65,-7.9 -17.65,-17.65c0,-9.75 7.9,-17.65 17.65,-17.65l0,0z" class="st0"/>
  </g>
 </g>
</svg>